<svg width="16" height="15" viewBox="0 0 16 15" fill="none" xmlns="http://www.w3.org/2000/svg">
<path d="M8 7.24638C6.9 7.24638 6 6.90821 5.3 6.23188C4.6 5.55556 4.25 4.68599 4.25 3.62319C4.25 2.56039 4.6 1.69082 5.3 1.01449C6 0.338164 6.9 0 8 0C9.1 0 10 0.338164 10.7 1.01449C11.4 1.69082 11.75 2.56039 11.75 3.62319C11.75 4.68599 11.4 5.55556 10.7 6.23188C10 6.90821 9.1 7.24638 8 7.24638ZM0 15V12.7295C0 12.1176 0.158333 11.5942 0.475 11.1594C0.791667 10.7246 1.2 10.3945 1.7 10.1691C2.81667 9.68599 3.8875 9.32367 4.9125 9.08213C5.9375 8.84058 6.96667 8.71981 8 8.71981C9.03333 8.71981 10.0583 8.84461 11.075 9.0942C12.0917 9.3438 13.1577 9.70365 14.273 10.1738C14.7947 10.4012 15.213 10.7311 15.5278 11.1633C15.8426 11.5955 16 12.1176 16 12.7295V15H0ZM1.5 13.5507H14.5V12.7295C14.5 12.4718 14.4208 12.2262 14.2625 11.9928C14.1042 11.7593 13.9083 11.5862 13.675 11.4734C12.6083 10.9742 11.6333 10.632 10.75 10.4469C9.86667 10.2617 8.95 10.1691 8 10.1691C7.05 10.1691 6.125 10.2617 5.225 10.4469C4.325 10.632 3.35 10.9742 2.3 11.4734C2.06667 11.5862 1.875 11.7593 1.725 11.9928C1.575 12.2262 1.5 12.4718 1.5 12.7295V13.5507ZM8 5.7971C8.65 5.7971 9.1875 5.59179 9.6125 5.18116C10.0375 4.77053 10.25 4.25121 10.25 3.62319C10.25 2.99517 10.0375 2.47585 9.6125 2.06522C9.1875 1.65459 8.65 1.44928 8 1.44928C7.35 1.44928 6.8125 1.65459 6.3875 2.06522C5.9625 2.47585 5.75 2.99517 5.75 3.62319C5.75 4.25121 5.9625 4.77053 6.3875 5.18116C6.8125 5.59179 7.35 5.7971 8 5.7971Z" fill="black"/>
</svg>
