<?xml version="1.0" encoding="UTF-8"?><svg id="Layer_2" xmlns="http://www.w3.org/2000/svg" viewBox="0 0 163.67 98.16"><defs><style>.cls-1{fill:#c5e9fc;}</style></defs><g id="Layer_1-2"><path class="cls-1" d="m137.9,46.62c-3.21,0-6.28.62-9.12,1.69-3.57-13.73-16.04-23.86-30.89-23.86-5.35,0-10.38,1.32-14.81,3.65C77.08,11.7,61.33,0,42.85,0,19.18,0,0,19.18,0,42.85s19.18,42.85,42.85,42.85c2.25,0,4.46-.18,6.61-.51l81.09,11.89c2.33.69,4.79,1.08,7.35,1.08,14.23,0,25.77-11.54,25.77-25.77,0-14.23-11.54-25.77-25.77-25.77Z"/></g></svg>