<svg width="200" height="200" viewBox="0 0 200 200" fill="none" xmlns="http://www.w3.org/2000/svg">
<path fill-rule="evenodd" clip-rule="evenodd" d="M180 100C180 144.183 144.183 180 100 180C79.0036 180 59.8964 171.911 45.6245 158.68L172.493 66.1217C177.309 76.4092 180 87.8904 180 100ZM26.9602 132.686L153.406 40.4359C139.244 27.7293 120.525 20 100 20C55.8172 20 20 55.8172 20 100C20 111.644 22.4876 122.707 26.9602 132.686ZM200 100C200 155.228 155.228 200 100 200C44.7715 200 0 155.228 0 100C0 44.7715 44.7715 0 100 0C155.228 0 200 44.7715 200 100Z" fill="black"/>
</svg>
