<svg width="111" height="164" viewBox="0 0 111 164" fill="none" xmlns="http://www.w3.org/2000/svg">
<path fill-rule="evenodd" clip-rule="evenodd" d="M59.1579 20.4063L54.9153 16.1637L49.4411 10.6895L43.8532 5.10158L51.7324 4.49549L104.12 0.465657L110.174 0L109.708 6.05354L105.678 58.4414L105.072 66.3206L99.4843 60.7327L94.0101 55.2585L89.7674 51.0158L85.5248 55.2585L77.5445 63.2388C77.6723 63.4028 77.7988 63.5675 77.9239 63.7329C90.7555 80.6957 89.4385 104.952 73.9729 120.418L55.2585 139.132L51.0158 143.375L55.2585 147.617L60.7327 153.092L66.3206 158.679L58.4414 159.286L6.05354 163.315L0 163.781L0.465658 157.728L4.4955 105.34L5.10159 97.4605L10.6895 103.048L16.1637 108.523L20.4063 112.765L24.649 108.523L32.6293 100.542C32.5014 100.378 32.375 100.214 32.2498 100.048C19.4183 83.0854 20.7352 58.829 36.2008 43.3635L54.9153 24.649L59.1579 20.4063ZM63.4006 16.1637L57.3203 10.0834L103.655 6.5192L100.09 52.8535L94.0101 46.7732L89.7674 42.5305L85.5248 46.7732L36.5404 95.7576C26.0247 81.1835 27.3257 60.7238 40.4434 47.6061L63.4006 24.649L67.6432 20.4063L63.4006 16.1637ZM46.7732 147.617L52.8535 153.698L6.5192 157.262L10.0834 110.928L16.1637 117.008L20.4063 121.251L24.649 117.008L73.6334 68.0235C84.1491 82.5976 82.848 103.057 69.7303 116.175L46.7732 139.132L42.5305 143.375L46.7732 147.617Z" fill="black"/>
</svg>
