<svg width="384" height="269" viewBox="0 0 384 269" fill="none" xmlns="http://www.w3.org/2000/svg">
<g clip-path="url(#clip0_5_1488)">
<path fill-rule="evenodd" clip-rule="evenodd" d="M149.327 22.7358C193.928 -0.934565 241.944 -5.83924 281.21 3.33034C370.626 24.4417 377.669 91.6142 330.08 160.919C308.313 192.693 276.089 223.187 237.249 242.379C173.441 273.94 112.408 275.646 72.2881 251.336C31.9548 227.025 22.3516 186.082 36.6497 142.58C51.3745 97.3718 92.5614 50.8842 149.327 22.7358Z" fill="#ED1C24"/>
<path d="M289.746 74.1281C289.533 76.687 289.533 79.2459 289.96 81.8049C290.387 84.5771 291.027 87.5625 292.094 90.3347C293.588 94.3864 295.722 98.0116 298.069 100.997C300.203 103.769 302.764 105.902 305.752 107.608C309.38 109.1 312.794 109.953 315.568 109.74C317.916 109.74 319.623 109.1 320.903 108.034C321.757 107.181 322.397 105.902 322.611 104.196C323.037 101.85 322.61 98.8646 321.97 95.0261C321.757 93.9599 321.543 93.1069 321.33 92.0407C321.117 91.1877 320.69 90.1215 320.476 89.2685C318.556 84.3638 315.995 79.8856 312.794 76.4737C310.02 73.4883 306.605 71.3558 302.977 70.2896C299.136 69.2234 295.935 69.2233 293.588 70.0763C292.094 70.7161 290.813 71.7823 290.173 73.4883L289.746 74.1281ZM288.039 13.9926C307.032 6.9555 325.812 8.44824 341.817 16.3383C358.462 24.4417 371.907 39.5821 378.949 58.561C383.004 69.2234 384.498 80.3122 383.857 90.7612C383.217 101.424 380.443 111.659 375.321 120.829C375.108 121.255 374.894 121.895 374.254 122.748C373.827 123.601 373.401 124.241 373.187 124.667C365.505 137.249 357.609 146.418 349.713 153.029C341.603 159.64 333.708 163.905 325.812 166.89C306.392 174.14 287.185 172.648 270.967 164.758C253.895 156.441 240.237 141.514 233.194 122.322C229.353 111.873 227.432 101.424 227.859 91.4009C228.286 81.1651 230.634 71.3558 235.115 62.1863C238.529 55.3624 243.865 47.4723 250.907 40.0087C257.096 33.398 264.565 27.0006 272.887 21.4562C275.021 19.9635 277.369 18.6841 279.716 17.4046C282.917 16.1251 285.478 14.8456 288.039 13.9926Z" fill="white"/>
<path d="M199.263 48.965L231.701 36.81C234.688 35.7437 237.889 37.2364 238.956 40.2218C238.956 40.4351 239.17 40.4351 239.17 40.6484L285.265 163.691C285.692 164.331 285.905 165.184 285.905 166.037C286.119 167.743 285.478 169.449 284.198 170.515L269.046 185.656C268.406 186.295 267.766 186.722 266.912 186.935L240.237 196.745C238.53 197.384 236.609 197.171 235.115 196.105L205.025 176.06L210.787 191.2C211.214 192.053 211.641 193.119 211.641 194.186C211.641 195.678 211 197.171 209.933 198.024L194.782 213.164C194.142 213.804 193.501 214.231 192.861 214.444L160.21 226.599C157.223 227.665 154.022 226.172 152.955 223.187L106.433 98.8645C105.579 96.5188 106.219 93.9599 108.14 92.4671L122.865 77.7532C123.505 77.1134 124.145 76.6869 124.999 76.4737L153.381 66.0246C155.089 65.3849 157.009 65.5982 158.503 66.6644L186.246 84.7903L181.124 71.1425C180.27 69.0101 180.911 66.6644 182.404 65.1717L197.343 50.0312C197.983 49.6047 198.623 49.1782 199.263 48.965Z" fill="white"/>
<path d="M88.7201 252.615C75.9159 253.894 64.8189 251.549 55.2157 245.791C42.1981 238.114 32.5949 224.68 25.9794 207.407L0.370976 138.742C-0.482638 136.396 0.157547 133.837 2.07818 132.344L16.8031 117.63C17.4433 116.991 18.0835 116.564 18.7237 116.351L51.3744 104.196C54.3621 103.129 57.5631 104.622 58.6301 107.608L84.8788 177.766C86.3726 181.817 88.5067 185.656 91.4943 188.215C93.6283 190.134 96.4026 191.413 99.8171 191.627C100.457 191.627 101.311 191.627 101.951 191.627C101.951 190.347 101.738 189.068 101.524 187.788C101.097 185.869 100.671 183.95 99.8171 181.817L73.5684 111.659C72.7148 109.314 73.355 106.755 75.2756 105.262L89.5737 90.9745C90.2139 90.1215 91.0675 89.4818 92.1346 89.0553L124.785 76.9002C127.773 75.834 130.974 77.3267 132.041 80.3122L158.076 149.83C162.131 160.493 164.052 170.729 163.838 180.325C163.625 189.921 161.491 198.877 157.009 206.98C153.381 213.378 146.552 219.988 139.724 226.599C138.23 228.092 136.522 229.584 135.242 230.864L135.029 231.077C132.468 233.849 129.48 236.408 126.279 238.541C115.396 246.218 102.378 251.122 88.7201 252.615Z" fill="white"/>
<path fill-rule="evenodd" clip-rule="evenodd" d="M238.316 191.413L193.715 161.772L205.665 194.186H205.879L190.727 209.113L158.076 221.481L111.554 97.1586L126.706 82.0181L155.302 71.569L197.343 99.0778L186.246 69.4366L201.184 54.2961L233.621 42.1411L280.357 166.464L265.205 181.604L238.316 191.413Z" fill="black"/>
<path fill-rule="evenodd" clip-rule="evenodd" d="M290.173 19.3238C325.812 6.10258 361.023 26.1477 373.827 60.4803C381.297 80.3122 379.803 101.637 370.626 118.483C370.2 119.55 369.559 120.616 368.919 121.682C354.194 145.992 339.043 156.015 324.318 161.559C287.612 175.207 251.974 154.735 238.956 120.402C231.701 100.784 232.341 81.5917 240.664 64.7452C246.639 52.5902 259.656 37.2365 276.515 26.1477C280.57 23.3755 285.265 21.0298 290.173 19.3238ZM284.198 73.0619C284.198 72.8486 284.411 72.6354 284.411 72.4221C286.759 64.7452 294.441 62.3995 304.044 64.9585C313.861 67.5174 321.33 76.687 325.385 87.3493C326.238 89.4818 326.879 91.6143 327.305 93.96C329.226 102.703 328.372 108.887 324.745 112.299C320.476 116.351 312.581 116.564 303.618 112.726C296.148 108.674 290.387 101.21 286.972 92.254C284.411 85.8567 283.558 79.246 284.198 73.0619Z" fill="black"/>
<path fill-rule="evenodd" clip-rule="evenodd" d="M181.337 128.506L205.665 194.186L173.015 206.341L126.706 82.0181L155.302 71.5691L224.658 116.777L201.184 54.2961L233.621 42.1411L280.357 166.464L253.468 176.273L181.337 128.506Z" fill="black"/>
<path fill-rule="evenodd" clip-rule="evenodd" d="M172.588 117.63L200.33 191.627L175.575 200.796L132.254 84.5771L154.662 76.2605L233.194 127.653L206.732 56.8551L231.06 47.6855L274.808 163.905L253.894 171.581L172.588 117.63Z" fill="white"/>
<path fill-rule="evenodd" clip-rule="evenodd" d="M210.574 58.561L229.353 51.5239L270.753 162.199L254.321 168.17L166.612 109.953L196.489 189.921L177.496 196.958L136.096 86.4963L154.235 79.6724L239.17 135.116L210.574 58.561Z" fill="#F8DA27"/>
<path fill-rule="evenodd" clip-rule="evenodd" d="M290.173 19.3238C325.812 6.10258 361.023 26.1477 373.827 60.4803C386.632 94.8129 373.187 133.197 337.762 146.419C302.124 159.64 266.912 139.595 254.108 105.262C241.09 70.7161 254.535 32.5451 290.173 19.3238ZM301.91 50.671C283.984 57.2817 280.783 75.6208 286.972 92.254C293.161 108.674 307.459 120.402 325.598 113.792C343.524 106.968 346.725 88.842 340.536 72.2088C334.134 55.7889 319.836 44.0604 301.91 50.671Z" fill="black"/>
<path fill-rule="evenodd" clip-rule="evenodd" d="M291.667 23.3755C324.958 11.0072 357.822 29.7729 369.986 62.1863C381.937 94.3865 369.559 130.212 336.268 142.793C302.977 155.162 270.113 136.183 257.949 103.983C245.999 71.5691 258.163 35.7437 291.667 23.3755ZM300.417 46.6193C280.143 54.0829 275.875 74.981 282.917 93.7467C289.96 112.512 306.605 125.307 327.092 117.844C347.365 110.167 351.633 89.4818 344.591 70.9294C337.335 52.1637 320.69 39.1557 300.417 46.6193Z" fill="white"/>
<path fill-rule="evenodd" clip-rule="evenodd" d="M299.35 43.8471C320.477 35.957 339.256 48.5385 347.152 69.6499C355.048 90.7613 349.073 112.512 327.946 120.402C306.819 128.293 287.826 115.711 279.93 94.5997C272.034 73.7015 278.223 51.7372 299.35 43.8471ZM292.734 26.1477C323.891 14.4192 355.475 31.6921 367.212 63.0393C378.949 94.3864 366.358 128.079 335.415 139.595C304.258 151.11 272.674 134.05 260.937 102.703C248.986 71.3559 261.364 37.663 292.734 26.1477Z" fill="#F8DA27"/>
<path fill-rule="evenodd" clip-rule="evenodd" d="M85.3056 247.284C59.6971 248.777 41.5578 232.357 31.5279 205.274L5.91943 136.609L20.8577 121.469L53.5085 109.314L79.7571 179.472C83.1716 188.428 89.3603 196.318 99.8171 196.745C102.805 196.958 106.859 196.531 107.713 192.693C107.926 188.215 107.073 183.737 105.366 179.472L79.1169 109.314L94.2686 94.1732L126.706 82.0181L152.741 151.536C160.21 171.582 160.21 189.494 152.101 203.995C148.26 210.819 139.083 218.922 131.401 226.599C119.664 238.967 101.951 246.431 85.3056 247.284Z" fill="black"/>
<path fill-rule="evenodd" clip-rule="evenodd" d="M128.2 224.467L128.413 224.893L121.584 227.452C121.371 227.452 121.158 227.665 121.158 227.665C120.944 227.665 120.731 227.878 120.517 227.878L113.688 230.437L113.475 230.011C80.8242 238.541 58.4168 221.481 46.6796 190.134L21.0712 121.469L53.7219 109.314L79.9706 179.472C83.385 188.428 89.5737 196.318 100.03 196.745C103.018 196.958 106.219 196.318 108.993 195.252C111.981 194.186 114.755 192.48 116.889 190.347C124.359 183.31 123.932 173.287 120.517 164.331L94.0552 94.1732L126.706 82.0181L152.741 151.536C164.478 183.097 158.717 209.753 128.2 224.467Z" fill="black"/>
<path fill-rule="evenodd" clip-rule="evenodd" d="M122.651 222.334L119.877 223.4C119.664 223.4 119.45 223.614 119.237 223.614C119.023 223.614 118.81 223.827 118.597 223.827L115.822 224.893C83.3851 235.129 61.8313 219.562 50.5209 188.854L26.4062 124.241L50.9477 115.071L75.7025 181.178C79.7571 191.84 87.4397 200.796 99.6037 201.223C103.232 201.436 106.859 200.796 110.274 199.517C113.688 198.237 117.103 196.318 119.664 193.759C128.413 185.442 128.413 173.714 124.359 163.052L99.6037 96.9454L124.145 87.7758L148.687 153.242C160.21 183.95 154.022 208.9 122.651 222.334Z" fill="white"/>
<path fill-rule="evenodd" clip-rule="evenodd" d="M30.2476 125.947L49.2405 118.91L72.9283 182.244C80.8242 203.142 97.4697 207.407 111.341 202.289C125.212 196.958 135.242 182.884 127.133 161.985L103.445 98.6514L122.438 91.6142L145.912 154.309C155.302 179.258 155.302 206.554 118.81 220.841C118.597 220.841 118.383 221.055 118.17 221.055C117.956 221.055 117.743 221.268 117.53 221.268C81.6778 234.063 62.6849 213.591 53.0817 188.001L30.2476 125.947Z" fill="#F8DA27"/>
<path fill-rule="evenodd" clip-rule="evenodd" d="M191.154 70.2896L202.891 58.3478L209.507 76.0473L197.769 87.9891L191.154 70.2896ZM199.903 93.9599L211.641 82.0181L214.201 88.6288L202.464 100.571L199.903 93.9599Z" fill="#58585A"/>
<path fill-rule="evenodd" clip-rule="evenodd" d="M84.0253 110.38L95.7624 98.438L102.378 116.137L90.6408 128.079L84.0253 110.38ZM92.7748 134.05L104.512 122.108L107.073 128.719L95.3357 140.661L92.7748 134.05Z" fill="#58585A"/>
<path fill-rule="evenodd" clip-rule="evenodd" d="M25.5526 177.552L37.2898 165.611L43.9053 183.31L32.1681 195.252L25.5526 177.552ZM34.5156 201.223L46.2528 189.281L46.6796 190.134C47.5332 192.053 48.1734 193.972 49.027 195.892L37.0764 207.833L34.5156 201.223Z" fill="#58585A"/>
<path fill-rule="evenodd" clip-rule="evenodd" d="M316.422 66.6644L328.372 54.7226C332.641 58.1345 336.268 63.0392 338.829 68.5836L327.092 80.3121C324.531 75.1942 320.903 70.2896 316.422 66.6644ZM329.653 86.0697L341.177 74.3412C342.03 76.9001 342.457 79.2459 342.884 81.8048L331.573 93.1069V92.8936C331.147 90.7612 330.506 88.4154 329.653 86.0697Z" fill="#58585A"/>
</g>
<defs>
<clipPath id="clip0_5_1488">
<rect width="384" height="269" fill="white"/>
</clipPath>
</defs>
</svg>
