<svg width="34" height="48" viewBox="0 0 34 48" fill="none" xmlns="http://www.w3.org/2000/svg">
<path d="M2.36292 31.6928L2.68484 32.2723L3.15355 31.8036L5.30355 29.6535L5.52525 29.4319L5.42225 29.1357C5.16309 28.3907 4.94354 27.5944 4.76417 26.7465C4.58866 25.9168 4.5 25.035 4.5 24.1C4.5 20.6676 5.72115 17.736 8.17855 15.2785C10.636 12.8211 13.5676 11.6 17 11.6H17.8429L14.7464 14.6964L14.3929 15.05L14.7464 15.4035L16.7464 17.4035L17.1 17.7571L17.4536 17.4035L24.9036 9.95355L25.2571 9.59999L24.9036 9.24644L17.4536 1.79644L17.1 1.44289L16.7464 1.79644L14.7964 3.74644L14.4429 4.09999L14.7964 4.45355L17.9429 7.59999H17C12.4978 7.59999 8.61309 9.22979 5.37145 12.4714C2.1298 15.7131 0.5 19.5977 0.5 24.1C0.5 25.402 0.63709 26.6796 0.911594 27.932C1.18968 29.2008 1.67502 30.4546 2.36292 31.6928ZM16.4464 46.3535L16.8 46.7071L17.1536 46.3535L19.1036 44.4036L19.4571 44.05L19.1036 43.6964L15.9571 40.55H17C21.5022 40.55 25.3869 38.9202 28.6286 35.6786C31.8702 32.4369 33.5 28.5522 33.5 24.05C33.5 22.7457 33.3541 21.466 33.062 20.2116C32.7671 18.9455 32.2741 17.6938 31.5871 16.4572L31.2652 15.8777L30.7964 16.3464L28.6464 18.4964L28.4057 18.7372L28.5415 19.0494C28.8594 19.7805 29.0989 20.5618 29.259 21.3944C29.4191 22.2272 29.5 23.112 29.5 24.05C29.5 27.4824 28.2788 30.414 25.8214 32.8714C23.364 35.3288 20.4324 36.55 17 36.55H15.9571L19.1036 33.4036L19.4571 33.05L19.1036 32.6964L17.1536 30.7464L16.8 30.3929L16.4464 30.7464L8.99645 38.1964L8.64289 38.55L8.99645 38.9035L16.4464 46.3535Z" fill="black" stroke="black"/>
</svg>
